<svg xmlns="http://www.w3.org/2000/svg"  viewBox="0 0 512 512" width="512px" height="512px"><path fill="#497336" d="M7.9,256C7.9,119,119,7.9,256,7.9C393,7.9,504.1,119,504.1,256c0,137-111.1,248.1-248.1,248.1C119,504.1,7.9,393,7.9,256z"/><path fill="#FFF" d="M186,284.7c-6.2-23.9-12.4-47.9-18.6-71.9c-1-3.9-5.1-6.2-9-5.2c-23.9,6.2-47.9,12.4-71.8,18.6c-6.3,1.6-7.2,10.2-1.8,13.5c7.6,4.5,15.3,9,22.9,13.5l-26.9,46.7c-2.7,4.7-2.7,12.7,0,17.4l26.1,45.2c0.4-2.5,1.4-5,2.9-7.6l43.4-74.9c7.2,4.2,14.3,8.4,21.5,12.6c0.4,0.3,0.8,0.5,1.2,0.6c3,1.5,5.8,0.7,7.8-1.2C185.7,290.4,186.9,287.9,186,284.7z"/><path fill="#FFF" d="M235.6 347.6c.1-15.6-12.6-29-28.1-29.5v-.1h-68l-22.4 38.5c-1.8 3.2-2.7 6.1-2.7 8.8-.1 4 1.7 7.3 5.2 9.3 2 1 4 1.7 6 2 .4.1.8.1 1.2.1l4.2.1h70.5c0 0 .1 0 .1 0 1.5 0 2.9 0 4.4 0 0 0 .1 0 .1 0h1.3v-.1C222.8 375.9 235.5 363.2 235.6 347.6zM349.3 106.3c-7.7 4.4-15.4 8.8-23 13.2l-27.1-46.6c-2.7-4.7-9.7-8.6-15.1-8.6l-52.2.2c1.9 1.6 3.7 3.7 5.2 6.3l43.4 74.9c-7.4 4.2-14.9 8.5-22.3 12.7 0 0 0 0 0 0 0 0-.1.1-.1.1-3 1.8-3.8 4.7-3.2 7.4.3 2.6 1.9 5 5.1 5.9 23.9 6.5 47.7 13 71.6 19.5 3.9 1 8-1.3 9-5.1 6.5-23.9 13-47.7 19.5-71.6C361.8 108.3 354.8 103.1 349.3 106.3z"/><path fill="#FFF" d="M225.7 69.7c-3.4-2.1-7.2-2.1-10.7-.2-1.8 1.2-3.4 2.6-4.8 4.2-.2.3-.5.6-.7 1l-2.2 3.6-38 66.4.1 0c-7 13.7-2.1 31.1 11.4 38.9 13.5 7.8 31.3 3.3 39.5-9.8l.1.1 33.8-59L232 76.4C230.2 73.3 228 71.1 225.7 69.7zM419.9 319.6l-86.6.2c0-8.3.1-16.6.1-24.9 0-.5 0-1-.1-1.5-.3-3.1-2.2-5.1-4.7-5.9-2.3-1-5-.9-7.3 1.1-.2.1-.3.2-.5.4 0 0 0 0 0 0-17.6 17.4-35.1 34.9-52.7 52.3-2.9 2.8-2.7 7.6.1 10.4 17.4 17.5 34.9 35.1 52.3 52.6 4.5 4.5 12.5 1.2 12.5-5.2 0-8.9.1-17.8.1-26.7l53.9-.3c5.4 0 12.3-4.1 15-8.8l25.9-45.4C425.6 319.1 422.9 319.5 419.9 319.6z"/><path fill="#FFF" d="M430.6,295c-0.1-0.4-0.3-0.7-0.5-1.1l-2-3.7l-35.7-61.1c0,0,0-0.1-0.1-0.1c-0.7-1.3-1.5-2.5-2.2-3.8c0,0-0.1-0.1-0.1-0.1l-0.5-0.9l0,0c-8.4-13-26.1-17.4-39.6-9.5c-13.4,7.9-18.2,25.4-11.1,39l-0.1,0.1l34.3,58.7l44.5-0.1c3.6,0,6.7-0.8,9-2.1c3.5-1.9,5.4-5.2,5.5-9.2C431.8,299,431.3,296.9,430.6,295z"/></svg>